<?xml version="1.0" standalone="no"?>
<!DOCTYPE svg PUBLIC "-//W3C//DTD SVG 20010904//EN"
 "http://www.w3.org/TR/2001/REC-SVG-20010904/DTD/svg10.dtd">
<svg version="1.0" xmlns="http://www.w3.org/2000/svg"
 width="246.000000pt" height="512.000000pt" viewBox="0 0 246.000000 512.000000"
 preserveAspectRatio="xMidYMid meet">

<g transform="translate(0.000000,512.000000) scale(0.100000,-0.100000)"
fill="#000000" stroke="none">
<path d="M985 5113 c-97 -21 -224 -85 -296 -150 -57 -51 -126 -161 -148 -234
-40 -133 -42 -181 -41 -1154 1 -517 1 -1087 0 -1267 l0 -327 -24 -13 c-26 -14
-116 -88 -156 -129 -123 -125 -218 -291 -276 -484 -32 -108 -44 -310 -25 -434
26 -165 113 -376 203 -494 171 -223 431 -379 696 -417 117 -17 336 -8 432 18
304 82 549 275 691 547 69 130 95 216 121 390 13 89 13 131 -1 232 -17 126
-51 241 -100 343 -35 73 -40 81 -96 164 -37 56 -199 226 -214 226 -5 0 -20 10
-34 23 l-27 22 -2 1320 -3 1320 -28 88 c-31 101 -100 212 -168 270 -58 49
-179 111 -255 131 -57 15 -200 20 -249 9z m233 -213 c23 -7 47 -19 53 -27 6
-7 17 -13 24 -13 6 0 39 -28 72 -62 72 -75 103 -148 110 -258 5 -72 -9 -215
-22 -228 -3 -4 -24 15 -46 41 -25 29 -62 57 -95 73 -45 21 -58 33 -71 65 -27
69 -124 109 -209 88 -60 -15 -100 -55 -116 -114 -9 -32 -20 -50 -34 -55 -12
-5 -45 -32 -73 -61 -28 -29 -55 -49 -58 -45 -12 12 -34 115 -40 187 -6 77 15
172 52 234 53 89 150 163 242 184 51 11 158 7 211 -9z m-471 -1092 c6 -7 16
-38 23 -68 7 -30 26 -86 42 -125 30 -67 30 -72 23 -165 -5 -52 -9 -156 -10
-230 -1 -113 -4 -142 -21 -180 -20 -43 -25 -73 -42 -232 -13 -112 -33 -107
-44 10 -8 96 -10 928 -2 971 7 33 16 38 31 19z m731 -615 c-3 -208 -9 -386
-13 -395 -4 -10 -12 -15 -17 -12 -7 5 -8 129 -4 378 7 385 11 435 28 418 7 -7
9 -136 6 -389z m-692 -1304 c16 -18 27 -20 71 -17 l53 5 0 -109 c0 -85 -3
-108 -14 -108 -39 0 -177 -84 -237 -143 -248 -246 -251 -624 -9 -868 112 -112
199 -156 368 -183 80 -13 94 -13 176 5 137 29 226 77 321 173 92 93 136 167
165 282 76 296 -78 602 -365 722 -49 20 -50 21 -52 69 -3 43 1 52 35 91 l37
42 70 -14 c38 -9 71 -20 73 -25 2 -6 28 -24 57 -41 62 -35 187 -155 231 -221
41 -60 88 -160 116 -244 20 -61 23 -90 23 -225 0 -173 -12 -234 -67 -348 -90
-184 -224 -317 -413 -408 -108 -52 -178 -68 -260 -61 -33 3 -80 2 -105 -3 -89
-17 -249 25 -390 103 -52 29 -104 70 -170 137 -105 104 -155 186 -206 335 -25
73 -28 94 -28 230 -1 178 17 255 92 400 37 71 67 110 142 186 55 56 119 110
153 129 35 20 57 38 57 49 0 10 5 32 11 50 13 36 37 40 65 10z"/>
<path d="M1894 4347 c-3 -8 -4 -49 -2 -93 l3 -79 230 -3 c257 -3 299 3 317 46
19 48 12 85 -22 115 l-30 27 -245 0 c-196 0 -247 -3 -251 -13z"/>
<path d="M1894 3857 c-3 -8 -4 -49 -2 -93 l3 -79 240 -3 c132 -1 250 0 262 3
29 7 63 72 56 107 -3 15 -16 37 -30 50 -24 23 -29 23 -274 26 -205 2 -250 1
-255 -11z"/>
<path d="M1895 3357 c-3 -12 -5 -54 -3 -92 l3 -70 241 -3 c133 -1 253 2 266 7
14 5 33 26 42 46 16 34 16 38 -1 72 -28 56 -54 61 -315 62 l-228 1 -5 -23z"/>
<path d="M1895 2857 c-3 -12 -5 -54 -3 -92 l3 -70 252 0 253 0 24 26 c38 41
38 97 1 134 l-24 25 -250 0 -251 0 -5 -23z"/>
<path d="M1897 2383 c-9 -8 -9 -146 -1 -167 5 -14 36 -16 235 -16 246 0 286 6
309 51 18 32 6 100 -20 121 -20 16 -48 18 -269 18 -136 0 -251 -3 -254 -7z"/>
</g>
</svg>
