<?xml version="1.0" standalone="no"?>
<!DOCTYPE svg PUBLIC "-//W3C//DTD SVG 20010904//EN"
 "http://www.w3.org/TR/2001/REC-SVG-20010904/DTD/svg10.dtd">
<svg version="1.0" xmlns="http://www.w3.org/2000/svg"
 width="1920.000000pt" height="1920.000000pt" viewBox="0 0 1920.000000 1920.000000"
 preserveAspectRatio="xMidYMid meet">

<g transform="translate(0.000000,1920.000000) scale(0.100000,-0.100000)"
fill="#000000" stroke="none">
<path d="M6336 15645 c-155 -32 -319 -103 -440 -189 -84 -60 -207 -191 -270
-289 -30 -45 -98 -161 -152 -257 -124 -223 -166 -289 -235 -372 -110 -132
-237 -216 -366 -243 -87 -19 -242 -19 -413 0 -172 19 -306 19 -395 0 -253 -53
-452 -278 -522 -588 -10 -45 -16 -120 -16 -202 -1 -110 3 -147 27 -238 43
-170 107 -316 218 -500 55 -91 269 -397 278 -397 3 0 5 66 5 148 0 156 13 229
62 360 101 270 304 495 551 609 363 168 862 94 1150 -171 23 -21 44 -37 46
-35 2 2 20 37 41 78 142 285 411 544 701 677 86 39 231 86 339 110 123 27 397
25 532 -4 302 -65 550 -193 754 -389 l66 -64 98 51 c106 54 259 107 395 137
68 14 127 18 300 18 200 -1 223 -3 335 -29 147 -35 234 -65 349 -123 204 -102
363 -234 495 -410 153 -204 252 -437 297 -701 26 -150 15 -442 -21 -582 -15
-58 -30 -109 -34 -113 -5 -4 -11 56 -14 135 -31 728 -415 1340 -952 1517 -243
80 -467 88 -704 26 -103 -28 -233 -85 -308 -136 -71 -48 -180 -156 -225 -222
l-40 -59 -38 66 c-149 255 -416 456 -707 533 -118 31 -348 43 -459 24 -231
-39 -441 -155 -619 -342 -170 -178 -268 -379 -310 -632 l-6 -38 -62 56 c-198
180 -456 275 -745 275 -310 0 -574 -98 -768 -286 -276 -267 -385 -722 -269
-1122 43 -146 149 -334 239 -421 l45 -44 68 62 c340 309 819 436 1258 335 33
-7 107 -27 165 -45 338 -100 440 -82 766 134 154 101 241 143 391 184 89 24
115 27 278 27 197 1 264 -8 410 -56 109 -37 209 -85 294 -145 148 -103 214
-175 376 -407 161 -231 268 -328 472 -422 264 -124 308 -146 377 -194 208
-144 367 -372 437 -627 26 -96 36 -306 20 -410 -30 -194 -125 -399 -257 -552
-47 -55 -155 -154 -185 -172 -9 -4 19 60 61 144 122 243 167 404 177 627 7
161 -5 247 -51 382 -43 126 -85 195 -171 284 -126 129 -279 209 -456 240 -181
31 -332 -2 -470 -102 -26 -19 -49 -34 -53 -34 -3 0 -6 34 -6 75 0 322 -220
668 -532 839 -89 49 -227 93 -333 105 -424 50 -870 -258 -1009 -697 -21 -68
-45 -205 -46 -272 0 -8 -18 18 -39 57 -176 332 -557 543 -980 543 -251 0 -469
-69 -648 -206 -379 -290 -548 -836 -418 -1351 83 -324 318 -624 632 -803 348
-199 761 -263 1160 -180 53 11 97 19 99 18 1 -2 -11 -41 -26 -88 -54 -161 -64
-325 -31 -497 79 -404 342 -713 698 -819 109 -32 310 -44 431 -24 335 54 645
271 788 553 19 37 35 67 37 67 1 0 -3 -53 -10 -117 -16 -156 -18 -447 -4 -551
33 -231 102 -396 225 -540 105 -121 244 -214 372 -247 73 -19 222 -19 294 0
177 47 361 199 540 445 223 306 328 424 456 510 131 87 326 130 455 100 133
-31 225 -108 299 -252 70 -135 113 -192 179 -236 77 -51 140 -66 250 -59 143
9 303 72 490 194 46 30 85 53 86 51 7 -7 -17 -123 -35 -169 -49 -122 -158
-249 -265 -306 -94 -49 -167 -67 -275 -67 -174 1 -307 59 -430 188 -135 144
-174 179 -230 205 -47 22 -68 26 -145 25 -134 -1 -230 -43 -338 -151 -94 -93
-152 -196 -267 -473 -145 -350 -194 -538 -194 -750 0 -218 64 -402 185 -533
110 -121 198 -163 454 -216 258 -54 332 -87 427 -188 64 -69 90 -125 96 -204
5 -76 -16 -128 -69 -173 -49 -41 -78 -54 -219 -91 -154 -41 -213 -69 -264
-125 -67 -74 -81 -118 -81 -260 l0 -125 57 -126 c137 -304 189 -569 174 -883
l-6 -140 21 20 c12 10 39 45 61 77 201 296 219 729 43 1029 l-43 73 77 6 c138
12 299 69 418 150 124 85 247 228 307 361 55 120 70 195 69 343 -1 188 -40
321 -141 480 -81 126 -189 226 -327 300 -225 121 -309 186 -351 270 -31 64
-28 121 9 177 72 106 200 121 499 57 268 -57 557 -51 794 17 120 34 314 130
411 203 205 154 356 379 425 634 19 70 23 106 22 242 0 147 -3 167 -28 245
-65 197 -175 351 -336 470 -187 139 -386 183 -630 141 -335 -59 -397 -62 -514
-21 -84 29 -140 62 -317 189 -225 162 -373 227 -579 256 -96 13 -281 13 -334
-1 -28 -7 -29 -6 -22 22 10 40 71 128 109 157 86 66 212 107 327 107 137 0
283 -50 562 -193 187 -96 314 -141 448 -158 213 -27 378 47 456 207 26 52 29
70 29 155 0 89 -2 99 -30 145 -24 37 -44 56 -90 79 -54 27 -67 30 -154 29 -82
-1 -126 -9 -293 -52 -274 -72 -344 -69 -429 17 -61 61 -77 125 -54 216 43 163
154 247 435 330 154 45 245 78 330 120 376 188 609 554 560 880 -47 309 -262
543 -534 580 l-48 7 87 49 c353 197 598 532 687 937 31 139 30 374 -1 522 -53
251 -149 450 -311 646 -105 127 -256 241 -515 389 -201 115 -295 183 -392 281
-122 123 -171 221 -243 484 -63 225 -94 308 -162 427 -82 143 -161 243 -288
367 -296 287 -661 447 -1060 463 -233 9 -371 -15 -819 -143 -411 -118 -507
-137 -706 -138 -251 -1 -352 30 -650 197 -352 198 -438 228 -680 233 -111 2
-181 -1 -229 -11z"/>
</g>
</svg>
